<?xml version="1.0" encoding="iso-8859-1"?>
<!-- Uploaded to: SVG Repo, www.svgrepo.com, Generator: SVG Repo Mixer Tools -->
<svg fill="#000000" version="1.1" id="Capa_1" xmlns="http://www.w3.org/2000/svg" xmlns:xlink="http://www.w3.org/1999/xlink" 
	 viewBox="0 0 60 60" xml:space="preserve">
<g>
	<g>
		<rect x="49.35" y="34" width="2" height="26"/>
		<path d="M5.35,46V24.1c0-12,10.1-22.1,22-22.1V0c-13,0-24,11-24,24.1V47c0,0.6,0.4,1,1,1h21v12h2V48h4v-2h-5H5.35z"/>
		<path d="M13.35,23v8c0,0.6,0.4,1,1,1h4v-2h-3v-7H13.35z"/>
		<path d="M40.65,0c-8.8,0-16,7.2-16,16c0,7.6,5.3,14.1,12.7,15.6V37h-1c-0.6,0-1,0.4-1,1v13c0,0.6,0.4,1,1,1h1v3c0,0.6,0.4,1,1,1h5
			c0.6,0,1-0.4,1-1v-3h1c0.6,0,1-0.4,1-1V38c0-0.6-0.4-1-1-1h-1v-5.4c7.2-1.7,12.3-8.1,12.3-15.6C56.65,7.2,49.45,0,40.65,0z
			 M42.35,54h-3v-2h3V54z M44.35,50h-1h-5h-1v-2h4v-2h-4v-3h4v-2h-4v-2h1h5h1V50z M43.15,29.8c-0.5,0.1-0.8,0.5-0.8,1V37h-3v-6.2
			c0-0.5-0.3-0.9-0.8-1c-6.9-1-11.9-6.8-11.9-13.8c0-7.7,6.3-14,14-14s14,6.3,14,14C54.65,22.8,49.85,28.6,43.15,29.8z"/>
		<path d="M40.75,4h-0.3c0,0,0,0-0.1,0l0,0c-6.6,0.2-11.7,5.5-11.7,12c0,6.6,5.4,12,12,12c5.9,0,11.1-4.6,11.8-10.5
			c0.1-0.2,0.2-0.3,0.2-0.5c0-0.1,0-0.3,0-0.4c0.1-0.2,0.1-0.4,0.1-0.6C52.75,9.4,47.35,4,40.75,4z M50.75,16h-9.3v-2h4.9v-2h-4.9
			v-2h2.9V8h-2.9V6C46.65,6.4,50.75,10.7,50.75,16z M40.65,26c-5.5,0-10-4.5-10-10c0-5.1,3.7-9.2,8.7-9.9V17c0,0.6,0.4,1,1,1h0.1
			h9.9C49.45,22.6,45.35,26,40.65,26z"/>
	</g>
</g>
</svg>