<svg width="200" height="70" viewBox="0 0 200 70" fill="none" xmlns="http://www.w3.org/2000/svg">
<path d="M14.9 22.96C17.14 23.2267 18.9133 23.9733 20.22 25.2C21.5533 26.4267 22.22 27.9467 22.22 29.76C22.22 31.1467 21.82 32.4 21.02 33.52C20.22 34.64 19.1133 35.5333 17.7 36.2C16.2867 36.84 14.7133 37.16 12.98 37.16C12.2333 37.16 11.38 37.12 10.42 37.04C10.0467 37.0133 9.58 36.9867 9.02 36.96C8.48667 36.9333 7.88667 36.92 7.22 36.92L4.3 36.96C3.76667 36.9867 3.04667 37 2.14 37C2.06 37 2.02 36.92 2.02 36.76C2.02 36.6 2.06 36.52 2.14 36.52C2.91333 36.52 3.5 36.4533 3.9 36.32C4.3 36.16 4.58 35.8933 4.74 35.52C4.92667 35.12 5.02 34.5333 5.02 33.76V15.24C5.02 14.12 4.83333 13.3867 4.46 13.04C4.08667 12.6667 3.32667 12.48 2.18 12.48C2.12667 12.48 2.1 12.4 2.1 12.24C2.1 12.08 2.12667 12 2.18 12L4.3 12.04C5.52667 12.0933 6.5 12.12 7.22 12.12C7.96667 12.12 8.74 12.08 9.54 12C9.80667 11.9733 10.2067 11.9467 10.74 11.92C11.2733 11.8933 11.74 11.88 12.14 11.88C14.5667 11.88 16.4467 12.32 17.78 13.2C19.1133 14.08 19.78 15.36 19.78 17.04C19.78 18.32 19.3533 19.48 18.5 20.52C17.6733 21.56 16.4733 22.3733 14.9 22.96ZM11.54 12.76C10.7667 12.76 10.2333 12.9467 9.94 13.32C9.64667 13.6667 9.5 14.3333 9.5 15.32V22.92L11.1 22.96C12.4867 22.96 13.5533 22.44 14.3 21.4C15.0467 20.36 15.42 19.0267 15.42 17.4C15.42 15.88 15.0867 14.7333 14.42 13.96C13.7533 13.16 12.7933 12.76 11.54 12.76ZM12.3 36.16C15.7933 36.16 17.54 34.3467 17.54 30.72C17.54 28.6667 17.0467 27.04 16.06 25.84C15.0733 24.64 13.58 24.04 11.58 24.04C10.8067 24.04 10.1133 24.0667 9.5 24.12V33.76C9.5 34.64 9.67333 35.2667 10.02 35.64C10.3667 35.9867 11.1267 36.16 12.3 36.16ZM57.6091 36.52C57.6624 36.52 57.6891 36.6 57.6891 36.76C57.6891 36.92 57.6624 37 57.6091 37C56.7024 37 55.9824 36.9867 55.4491 36.96L52.4891 36.92L49.4891 36.96C48.9824 36.9867 48.2891 37 47.4091 37C47.3291 37 47.2891 36.92 47.2891 36.76C47.2891 36.6 47.3291 36.52 47.4091 36.52C48.5291 36.52 49.2891 36.3867 49.6891 36.12C50.0891 35.8533 50.2891 35.2933 50.2891 34.44L50.2491 33.76L49.4091 17.4L41.1691 36.72C41.1157 36.8267 41.0091 36.88 40.8491 36.88C40.6891 36.88 40.5824 36.8267 40.5291 36.72L30.4091 17.48L30.0891 31.92C30.0624 33.36 30.3424 34.4933 30.9291 35.32C31.5424 36.12 32.3957 36.52 33.4891 36.52C33.5691 36.52 33.6091 36.6 33.6091 36.76C33.6091 36.92 33.5691 37 33.4891 37C32.7691 37 32.2091 36.9867 31.8091 36.96L29.6091 36.92L27.0891 36.96C26.6624 36.9867 26.0891 37 25.3691 37C25.2891 37 25.2491 36.92 25.2491 36.76C25.2491 36.6 25.2891 36.52 25.3691 36.52C26.4624 36.52 27.3291 36.1067 27.9691 35.28C28.6091 34.4533 28.9424 33.3333 28.9691 31.92L29.3291 15.36L29.2891 15.32C28.7557 14.3333 28.1957 13.6133 27.6091 13.16C27.0491 12.7067 26.3957 12.48 25.6491 12.48C25.5691 12.48 25.5291 12.4 25.5291 12.24C25.5291 12.08 25.5691 12 25.6491 12L27.5291 12.04C27.9024 12.0667 28.3824 12.08 28.9691 12.08L31.0891 12.04C31.3291 12.0133 31.6357 12 32.0091 12C32.3557 12 32.6224 12.12 32.8091 12.36C32.9957 12.6 33.3424 13.1733 33.8491 14.08L42.5691 30.44L50.1691 13C50.3291 12.6267 50.4891 12.3733 50.6491 12.24C50.8357 12.08 51.0757 12 51.3691 12C51.6091 12 51.8757 12.0133 52.1691 12.04C52.4891 12.0667 52.8491 12.08 53.2491 12.08L55.6091 12.04C55.9824 12.0133 56.5157 12 57.2091 12C57.2891 12 57.3291 12.08 57.3291 12.24C57.3291 12.4 57.2891 12.48 57.2091 12.48C55.9557 12.48 55.0491 12.7333 54.4891 13.24C53.9291 13.7467 53.6757 14.5333 53.7291 15.6L54.6891 33.76C54.7424 34.5867 54.8357 35.1867 54.9691 35.56C55.1291 35.9333 55.3957 36.1867 55.7691 36.32C56.1691 36.4533 56.7824 36.52 57.6091 36.52ZM83.5859 12C83.6393 12 83.6659 12.08 83.6659 12.24C83.6659 12.4 83.6393 12.48 83.5859 12.48C82.7593 12.48 81.7459 13 80.5459 14.04C79.3459 15.0533 78.2793 16.3333 77.3459 17.88L73.1859 24.84V33.76C73.1859 34.5867 73.2526 35.1867 73.3859 35.56C73.5193 35.9333 73.7726 36.1867 74.1459 36.32C74.5459 36.4533 75.1726 36.52 76.0259 36.52C76.1059 36.52 76.1459 36.6 76.1459 36.76C76.1459 36.92 76.1059 37 76.0259 37C75.1459 37 74.4526 36.9867 73.9459 36.96L70.9459 36.92L67.9859 36.96C67.4526 36.9867 66.7326 37 65.8259 37C65.7726 37 65.7459 36.92 65.7459 36.76C65.7459 36.6 65.7726 36.52 65.8259 36.52C66.6793 36.52 67.3059 36.4533 67.7059 36.32C68.1059 36.1867 68.3726 35.9333 68.5059 35.56C68.6659 35.16 68.7459 34.56 68.7459 33.76V25.68L62.9059 16.6C61.9193 15.0533 61.0926 13.9867 60.4259 13.4C59.7859 12.7867 59.2393 12.48 58.7859 12.48C58.7059 12.48 58.6659 12.4 58.6659 12.24C58.6659 12.08 58.7059 12 58.7859 12L60.0259 12.04C60.6126 12.0933 61.0259 12.12 61.2659 12.12C62.1993 12.12 63.5459 12.0933 65.3059 12.04L67.9459 12C67.9993 12 68.0259 12.08 68.0259 12.24C68.0259 12.4 67.9993 12.48 67.9459 12.48C67.4926 12.48 67.1326 12.5867 66.8659 12.8C66.6259 13.0133 66.5059 13.2933 66.5059 13.64C66.5059 14.0667 66.6926 14.5733 67.0659 15.16L72.5459 23.8L76.2259 17.52C76.9459 16.32 77.3059 15.2933 77.3059 14.44C77.3059 13.8 77.1059 13.32 76.7059 13C76.3326 12.6533 75.7859 12.48 75.0659 12.48C74.9859 12.48 74.9459 12.4 74.9459 12.24C74.9459 12.08 74.9859 12 75.0659 12L77.1859 12.04C78.4126 12.0933 79.5059 12.12 80.4659 12.12C80.9193 12.12 81.4659 12.0933 82.1059 12.04L83.5859 12Z" fill="#004700"/>
<path d="M120.46 36.52C120.54 36.52 120.58 36.6 120.58 36.76C120.58 36.92 120.54 37 120.46 37C119.607 37 118.94 36.9867 118.46 36.96L115.62 36.92L112.54 36.96C112.087 36.9867 111.46 37 110.66 37C110.58 37 110.54 36.92 110.54 36.76C110.54 36.6 110.58 36.52 110.66 36.52C111.7 36.52 112.447 36.4533 112.9 36.32C113.38 36.1867 113.7 35.9333 113.86 35.56C114.047 35.16 114.14 34.56 114.14 33.76V24.44H99.22V33.76C99.22 34.56 99.3 35.16 99.46 35.56C99.6467 35.9333 99.9667 36.1867 100.42 36.32C100.9 36.4533 101.66 36.52 102.7 36.52C102.753 36.52 102.78 36.6 102.78 36.76C102.78 36.92 102.753 37 102.7 37C101.847 37 101.18 36.9867 100.7 36.96L97.7 36.92L94.9 36.96C94.42 36.9867 93.74 37 92.86 37C92.8067 37 92.78 36.92 92.78 36.76C92.78 36.6 92.8067 36.52 92.86 36.52C93.8733 36.52 94.6067 36.4533 95.06 36.32C95.54 36.1867 95.86 35.9333 96.02 35.56C96.2067 35.16 96.3 34.56 96.3 33.76V15.24C96.3 14.44 96.2067 13.8533 96.02 13.48C95.86 13.1067 95.54 12.8533 95.06 12.72C94.6067 12.56 93.8867 12.48 92.9 12.48C92.8467 12.48 92.82 12.4 92.82 12.24C92.82 12.08 92.8467 12 92.9 12L94.94 12.04C96.06 12.0933 96.98 12.12 97.7 12.12C98.5 12.12 99.5133 12.0933 100.74 12.04L102.7 12C102.753 12 102.78 12.08 102.78 12.24C102.78 12.4 102.753 12.48 102.7 12.48C101.687 12.48 100.94 12.56 100.46 12.72C99.98 12.88 99.6467 13.16 99.46 13.56C99.3 13.9333 99.22 14.52 99.22 15.32V23.56H114.14V15.32C114.14 14.52 114.047 13.9333 113.86 13.56C113.7 13.16 113.38 12.88 112.9 12.72C112.42 12.56 111.673 12.48 110.66 12.48C110.58 12.48 110.54 12.4 110.54 12.24C110.54 12.08 110.58 12 110.66 12L112.54 12.04C113.713 12.0933 114.74 12.12 115.62 12.12C116.34 12.12 117.287 12.0933 118.46 12.04L120.46 12C120.54 12 120.58 12.08 120.58 12.24C120.58 12.4 120.54 12.48 120.46 12.48C119.447 12.48 118.7 12.56 118.22 12.72C117.767 12.8533 117.447 13.1067 117.26 13.48C117.1 13.8533 117.02 14.44 117.02 15.24V33.76C117.02 34.56 117.1 35.16 117.26 35.56C117.447 35.9333 117.767 36.1867 118.22 36.32C118.7 36.4533 119.447 36.52 120.46 36.52ZM136.451 34.68C136.531 34.68 136.597 34.7333 136.651 34.84C136.731 34.92 136.744 35 136.691 35.08C134.904 36.68 132.931 37.48 130.771 37.48C129.197 37.48 127.851 37.1333 126.731 36.44C125.611 35.72 124.757 34.7733 124.171 33.6C123.584 32.4 123.291 31.12 123.291 29.76C123.291 28.1867 123.664 26.7467 124.411 25.44C125.184 24.1333 126.224 23.1067 127.531 22.36C128.837 21.5867 130.277 21.2 131.851 21.2C133.397 21.2 134.571 21.6 135.371 22.4C136.197 23.1733 136.611 24.2933 136.611 25.76C136.611 26.48 136.451 26.84 136.131 26.84L126.251 26.88C126.197 27.4667 126.171 27.92 126.171 28.24C126.171 30.56 126.717 32.4267 127.811 33.84C128.904 35.2533 130.451 35.96 132.451 35.96C133.251 35.96 133.917 35.8667 134.451 35.68C135.011 35.4667 135.664 35.1333 136.411 34.68H136.451ZM130.491 22C129.371 22 128.451 22.3867 127.731 23.16C127.011 23.9067 126.544 24.96 126.331 26.32L133.611 26.16C133.611 24.8 133.331 23.7733 132.771 23.08C132.237 22.36 131.477 22 130.491 22ZM154.703 34.84C154.809 34.84 154.876 34.9067 154.903 35.04C154.929 35.1467 154.889 35.2267 154.783 35.28L150.663 37.24C150.556 37.2933 150.436 37.32 150.303 37.32C149.956 37.32 149.636 37.0933 149.343 36.64C149.076 36.16 148.889 35.52 148.783 34.72L146.783 36.04C146.143 36.4933 145.556 36.8133 145.023 37C144.516 37.1867 143.969 37.28 143.383 37.28C142.369 37.28 141.583 37.0267 141.023 36.52C140.463 35.9867 140.183 35.32 140.183 34.52C140.183 33.6667 140.516 32.96 141.183 32.4C141.876 31.8133 142.969 31.24 144.463 30.68L148.743 29.12V26.48C148.743 24.88 148.529 23.72 148.103 23C147.703 22.28 147.103 21.92 146.303 21.92C145.423 21.92 144.756 22.2267 144.303 22.84C143.849 23.4533 143.556 24.1467 143.423 24.92C143.263 26.0933 142.716 26.68 141.783 26.68C141.303 26.68 140.943 26.56 140.702 26.32C140.463 26.08 140.343 25.7867 140.343 25.44C140.343 24.7733 140.756 24.1067 141.583 23.44C142.436 22.7733 143.449 22.2267 144.623 21.8C145.823 21.3733 146.876 21.16 147.783 21.16C148.876 21.16 149.716 21.52 150.303 22.24C150.916 22.9333 151.223 23.9467 151.223 25.28V32.68C151.223 33.5867 151.343 34.2533 151.583 34.68C151.849 35.1067 152.249 35.32 152.783 35.32C153.263 35.32 153.876 35.16 154.623 34.84H154.703ZM148.743 34.12V33.88V29.68L145.383 31.04C144.663 31.3067 144.116 31.64 143.743 32.04C143.369 32.4133 143.183 32.8933 143.183 33.48C143.183 34.12 143.383 34.6533 143.783 35.08C144.209 35.48 144.743 35.68 145.383 35.68C145.916 35.68 146.516 35.48 147.183 35.08L148.743 34.12ZM156.419 37C156.339 37 156.299 36.92 156.299 36.76C156.299 36.6 156.339 36.52 156.419 36.52C157.406 36.52 158.059 36.3467 158.379 36C158.699 35.6267 158.859 34.88 158.859 33.76V13.16C158.859 12.2 158.766 11.5067 158.579 11.08C158.419 10.6533 158.113 10.44 157.659 10.44C157.259 10.44 156.659 10.6267 155.859 11H155.819C155.713 11 155.619 10.9333 155.539 10.8C155.486 10.64 155.513 10.5467 155.619 10.52L160.899 8.04L161.059 8C161.139 8 161.233 8.04 161.339 8.12C161.446 8.2 161.499 8.28 161.499 8.36V33.76C161.499 34.88 161.646 35.6267 161.939 36C162.259 36.3467 162.926 36.52 163.939 36.52C164.019 36.52 164.059 36.6 164.059 36.76C164.059 36.92 164.019 37 163.939 37C163.299 37 162.779 36.9867 162.379 36.96L160.179 36.92L157.939 36.96C157.566 36.9867 157.059 37 156.419 37ZM177.81 34.8C177.89 34.8 177.957 34.8667 178.01 35C178.063 35.1067 178.05 35.1867 177.97 35.24C176.983 36.04 176.09 36.6133 175.29 36.96C174.49 37.3067 173.637 37.48 172.73 37.48C171.61 37.48 170.677 37.2267 169.93 36.72C169.21 36.1867 168.85 35.32 168.85 34.12V24.8C168.85 24.16 168.797 23.6933 168.69 23.4C168.583 23.08 168.383 22.8667 168.09 22.76C167.823 22.6533 167.383 22.6 166.77 22.6C166.69 22.6 166.65 22.5067 166.65 22.32C166.65 22.1333 166.69 22.04 166.77 22.04C167.89 22.0133 168.797 21.7333 169.49 21.2C170.21 20.6667 170.65 19.92 170.81 18.96C170.837 18.88 170.943 18.84 171.13 18.84C171.317 18.84 171.41 18.88 171.41 18.96V22C172.69 21.9733 174.517 21.84 176.89 21.6C176.97 21.6 177.037 21.6933 177.09 21.88C177.143 22.0667 177.17 22.28 177.17 22.52C177.17 22.76 177.13 23 177.05 23.24C176.97 23.4533 176.877 23.5467 176.77 23.52C175.277 23.1733 173.49 22.9733 171.41 22.92V32.76C171.41 34.8933 172.45 35.96 174.53 35.96C175.65 35.96 176.717 35.5867 177.73 34.84L177.81 34.8ZM197.966 36.52C198.046 36.52 198.086 36.6 198.086 36.76C198.086 36.92 198.046 37 197.966 37C197.299 37 196.779 36.9867 196.406 36.96L194.246 36.92L192.006 36.96C191.632 36.9867 191.139 37 190.526 37C190.446 37 190.406 36.92 190.406 36.76C190.406 36.6 190.446 36.52 190.526 36.52C191.512 36.52 192.166 36.3467 192.486 36C192.806 35.6267 192.966 34.88 192.966 33.76V27.52C192.966 25.9467 192.672 24.7867 192.086 24.04C191.499 23.2933 190.592 22.92 189.366 22.92C188.566 22.92 187.752 23.1333 186.926 23.56C186.126 23.96 185.392 24.52 184.726 25.24V33.76C184.726 34.88 184.886 35.6267 185.206 36C185.526 36.3467 186.192 36.52 187.206 36.52C187.286 36.52 187.326 36.6 187.326 36.76C187.326 36.92 187.286 37 187.206 37C186.539 37 186.019 36.9867 185.646 36.96L183.486 36.92L181.246 36.96C180.872 36.9867 180.379 37 179.766 37C179.686 37 179.646 36.92 179.646 36.76C179.646 36.6 179.686 36.52 179.766 36.52C180.752 36.52 181.406 36.3467 181.726 36C182.046 35.6267 182.206 34.88 182.206 33.76V13.16C182.206 12.2 182.112 11.5067 181.926 11.08C181.739 10.6533 181.419 10.44 180.966 10.44C180.592 10.44 180.006 10.6267 179.206 11H179.166C179.059 11 178.966 10.9333 178.886 10.8C178.832 10.6667 178.859 10.5733 178.966 10.52L184.206 8H184.326C184.432 8 184.526 8.04 184.606 8.12C184.686 8.2 184.726 8.28 184.726 8.36V24.52C186.672 22.2533 188.726 21.12 190.886 21.12C192.352 21.12 193.486 21.5467 194.286 22.4C195.086 23.2533 195.486 24.4667 195.486 26.04V33.76C195.486 34.88 195.646 35.6267 195.966 36C196.286 36.3467 196.952 36.52 197.966 36.52Z" fill="#337E31"/>
<path d="M73.112 58.864C73.112 59.7493 72.7547 60.48 72.04 61.056C71.3253 61.6213 70.4347 61.904 69.368 61.904C68.8773 61.904 68.392 61.8773 67.912 61.824V65.28C67.912 65.344 67.9387 65.376 67.992 65.376L69.544 65.504L69.592 66H65.704L65.752 65.504L66.984 65.376C67.0373 65.376 67.064 65.344 67.064 65.28V56.72C67.064 56.656 67.0427 56.624 67 56.624L65.752 56.496L65.704 56H69.032C70.376 56 71.3893 56.2613 72.072 56.784C72.7653 57.3067 73.112 58 73.112 58.864ZM72.216 58.976C72.216 58.1653 71.928 57.5467 71.352 57.12C70.7867 56.6933 69.976 56.496 68.92 56.528L67.912 56.56V61.28C68.488 61.3867 68.984 61.44 69.4 61.44C70.3067 61.44 71 61.2213 71.48 60.784C71.9707 60.3467 72.216 59.744 72.216 58.976ZM82.3675 66H78.8155L78.8635 65.504L80.0795 65.408C80.1648 65.408 80.1968 65.3707 80.1755 65.296L79.1675 62.336H75.3435L74.3355 65.28C74.3142 65.3547 74.3302 65.392 74.3835 65.392L75.5515 65.504L75.5995 66H72.4315L72.4795 65.504L73.5515 65.392C73.5942 65.392 73.6315 65.3547 73.6635 65.28L76.7675 56.496V56.128L77.8395 55.808L81.0715 65.264C81.0928 65.3387 81.1408 65.3813 81.2155 65.392L82.3195 65.504L82.3675 66ZM78.9595 61.728L77.3275 56.784H77.2475L75.5515 61.728H78.9595ZM91.8854 66H88.8294L88.8934 65.504L89.7094 65.408C89.7307 65.408 89.7467 65.392 89.7574 65.36C89.7787 65.328 89.7787 65.3013 89.7574 65.28L86.4294 60.88L85.0214 62.32V65.28C85.0214 65.3227 85.048 65.3547 85.1014 65.376L86.3334 65.504L86.3814 66H82.8134L82.8614 65.504L84.0934 65.376C84.1467 65.3547 84.1734 65.3227 84.1734 65.28V56.72C84.1734 56.6667 84.1467 56.6347 84.0934 56.624L82.8614 56.496L82.8134 56H86.3814L86.3334 56.496L85.1014 56.624C85.048 56.6453 85.0214 56.6773 85.0214 56.72V61.504L89.6294 56.688C89.672 56.6453 89.672 56.624 89.6294 56.624L88.4774 56.496L88.4294 56H91.7254L91.6774 56.496L90.7014 56.608C90.6267 56.6293 90.5574 56.672 90.4934 56.736L86.9574 60.336L90.8134 65.28C90.856 65.344 90.92 65.3813 91.0054 65.392L91.8374 65.504L91.8854 66ZM96.6233 66H92.7353L92.7833 65.504L94.1753 65.376C94.2286 65.3547 94.2553 65.3227 94.2553 65.28V56.72C94.2553 56.6667 94.2286 56.6347 94.1753 56.624L92.7833 56.496L92.7353 56H96.6233L96.5753 56.496L95.1833 56.624C95.1299 56.6453 95.1033 56.6773 95.1033 56.72V65.28C95.1033 65.3227 95.1299 65.3547 95.1833 65.376L96.5753 65.504L96.6233 66ZM104.4 63.392C104.4 64.2347 104.075 64.9227 103.424 65.456C102.784 65.9787 101.952 66.24 100.928 66.24C99.9468 66.24 99.0401 66.128 98.2081 65.904L97.9361 63.136H98.4801L99.0721 65.376C99.6268 65.6 100.283 65.712 101.04 65.712C101.84 65.712 102.475 65.5147 102.944 65.12C103.424 64.7253 103.664 64.2293 103.664 63.632C103.664 63.0773 103.483 62.6347 103.12 62.304C102.757 61.9627 102.064 61.6053 101.04 61.232C100.048 60.8693 99.3175 60.4853 98.8481 60.08C98.3895 59.6747 98.1601 59.1307 98.1601 58.448C98.1601 57.6373 98.4535 56.992 99.0401 56.512C99.6268 56.0213 100.405 55.776 101.376 55.776C102.048 55.776 102.635 55.8293 103.136 55.936L103.984 55.696V58.752H103.44L103.104 56.72C102.613 56.432 101.984 56.288 101.216 56.288C100.48 56.288 99.9095 56.4747 99.5041 56.848C99.0988 57.2213 98.8961 57.6747 98.8961 58.208C98.8961 58.784 99.0935 59.2373 99.4881 59.568C99.8935 59.8987 100.576 60.2347 101.536 60.576C102.56 60.9387 103.291 61.3173 103.728 61.712C104.176 62.1067 104.4 62.6667 104.4 63.392ZM113.882 58.944H113.37L113.082 56.96C113.061 56.8427 113.034 56.7627 113.002 56.72C112.981 56.6773 112.874 56.6347 112.682 56.592C112.49 56.5493 112.234 56.528 111.914 56.528C111.594 56.5173 111.088 56.512 110.394 56.512H110.106V65.28C110.106 65.3227 110.133 65.3547 110.186 65.376L111.578 65.504L111.626 66H107.738L107.786 65.504L109.178 65.376C109.232 65.3547 109.258 65.3227 109.258 65.28V56.512H108.938C108.074 56.512 107.461 56.528 107.098 56.56C106.746 56.5813 106.533 56.6187 106.458 56.672C106.384 56.7147 106.33 56.8107 106.298 56.96L105.882 58.912H105.338L105.626 56H113.882V58.944ZM123.821 66H120.269L120.317 65.504L121.533 65.408C121.618 65.408 121.65 65.3707 121.629 65.296L120.621 62.336H116.797L115.789 65.28C115.767 65.3547 115.783 65.392 115.837 65.392L117.005 65.504L117.053 66H113.885L113.933 65.504L115.005 65.392C115.047 65.392 115.085 65.3547 115.117 65.28L118.221 56.496V56.128L119.293 55.808L122.525 65.264C122.546 65.3387 122.594 65.3813 122.669 65.392L123.773 65.504L123.821 66ZM120.413 61.728L118.781 56.784H118.701L117.005 61.728H120.413ZM134.763 56L134.715 56.496L133.275 56.624C133.221 56.624 133.195 56.656 133.195 56.72V66.08H132.539L126.331 56.88H126.267V65.28C126.267 65.3227 126.293 65.3547 126.347 65.376L127.739 65.504L127.786 66H124.059L124.107 65.504L125.547 65.376C125.6 65.3547 125.627 65.3227 125.627 65.28V56.832C125.627 56.7787 125.6 56.7467 125.547 56.736L124.283 56.496L124.235 56H126.683L132.539 64.608H132.555V56.72C132.555 56.656 132.528 56.624 132.475 56.624L131.083 56.496L131.035 56H134.763Z" fill="#647959"/>
</svg>
